<svg width="64" height="64" viewBox="0 0 64 64" fill="currentColor" xmlns="http://www.w3.org/2000/svg">
<g clip-path="url(#clip0_364_3878)">
<path fill-rule="evenodd" clip-rule="evenodd" d="M38 58L14 48V16L38 6.00002V58ZM10.46 53.024C9.73138 52.7201 9.109 52.2073 8.67124 51.5503C8.23349 50.8933 7.99993 50.1215 8 49.332V14.668C7.99993 13.8785 8.23349 13.1067 8.67124 12.4497C9.109 11.7927 9.73138 11.28 10.46 10.976L35.692 0.46002C36.6039 0.0799938 37.5956 -0.0689734 38.5789 0.0263459C39.5622 0.121665 40.5068 0.458321 41.3288 1.00642C42.1507 1.55452 42.8246 2.2971 43.2906 3.16823C43.7566 4.03936 44.0003 5.01208 44 6.00002V8.00002H49C52.864 8.00002 56 11.132 56 15V49C56 50.8565 55.2625 52.637 53.9497 53.9498C52.637 55.2625 50.8565 56 49 56H44V58C44.0003 58.988 43.7566 59.9607 43.2906 60.8318C42.8246 61.7029 42.1507 62.4455 41.3288 62.9936C40.5068 63.5417 39.5622 63.8784 38.5789 63.9737C37.5956 64.069 36.6039 63.92 35.692 63.54L10.46 53.024ZM44 50H49C49.2652 50 49.5196 49.8947 49.7071 49.7071C49.8946 49.5196 50 49.2652 50 49V15C50 14.7348 49.8946 14.4804 49.7071 14.2929C49.5196 14.1054 49.2652 14 49 14H44V50Z" fill="currentColor"/>
</g>
<defs>
<clipPath id="clip0_364_3878">
<rect width="64" height="64" fill="white"/>
</clipPath>
</defs>
</svg>
