<svg width="64" height="64" viewBox="0 0 64 64" fill="currentColor" xmlns="http://www.w3.org/2000/svg">
<path fill-rule="evenodd" clip-rule="evenodd" d="M60.734 21.3334C61.1328 23.0831 61.334 24.8721 61.334 26.6667H37.334V2.66669C42.7723 2.66667 48.0494 4.51363 52.3007 7.90499C56.552 11.2964 59.5255 16.031 60.734 21.3334ZM55.222 21.3334C54.3365 18.3627 52.725 15.6594 50.5332 13.4675C48.3413 11.2756 45.638 9.66419 42.6673 8.77869V21.3334H55.222Z" fill="currentColor"/>
<path fill-rule="evenodd" clip-rule="evenodd" d="M2.66699 37.3333C2.66698 33.7284 3.47905 30.1698 5.04291 26.9218C6.60677 23.6737 8.88223 20.8197 11.7003 18.5716C14.5184 16.3235 17.8067 14.7392 21.3211 13.9362C24.8354 13.1332 28.4855 13.1323 32.0003 13.9333V32H50.067C50.8176 35.2937 50.8645 38.7087 50.2045 42.0217C49.5445 45.3347 48.1926 48.4711 46.2371 51.2257C44.2817 53.9803 41.7667 56.2911 38.8567 58.0068C35.9468 59.7226 32.7074 60.8047 29.3505 61.1824C25.9935 61.5602 22.5947 61.2249 19.3762 60.1987C16.1577 59.1725 13.1922 57.4784 10.6735 55.2273C8.15474 52.9761 6.13964 50.2186 4.75995 47.135C3.38025 44.0515 2.66705 40.7115 2.66699 37.3333ZM44.811 37.3333H26.667V19.1893C23.0784 19.1893 19.5705 20.2535 16.5867 22.2472C13.603 24.2409 11.2774 27.0746 9.90412 30.3899C8.53085 33.7053 8.17153 37.3535 8.87162 40.8731C9.57171 44.3927 11.2998 47.6256 13.8372 50.1631C16.3747 52.7006 19.6077 54.4286 23.1273 55.1287C26.6469 55.8288 30.295 55.4695 33.6104 54.0962C36.9258 52.7229 39.7595 50.3974 41.7532 47.4136C43.7469 44.4298 44.811 40.9219 44.811 37.3333Z" fill="currentColor"/>
</svg>
