<svg width="64" height="65" viewBox="0 0 64 65" fill="currentColor" xmlns="http://www.w3.org/2000/svg">
<g filter="url(#filter0_d_364_3890)">
<path d="M46.5 17L41.5 17C41.225 17 41 17.225 41 17.5L41 46.5C41 46.775 41.225 47 41.5 47L46.5 47C46.775 47 47 46.775 47 46.5L47 17.5C47 17.225 46.775 17 46.5 17ZM34.5 34.5L29.5 34.5C29.225 34.5 29 34.725 29 35L29 46.5C29 46.775 29.225 47 29.5 47L34.5 47C34.775 47 35 46.775 35 46.5L35 35C35 34.725 34.775 34.5 34.5 34.5ZM22.5 30L17.5 30C17.225 30 17 30.225 17 30.5L17 46.5C17 46.775 17.225 47 17.5 47L22.5 47C22.775 47 23 46.775 23 46.5L23 30.5C23 30.225 22.775 30 22.5 30ZM9 57L55 57C56.1063 57 57 56.1063 57 55L57 9C57 7.89375 56.1063 7 55 7L9 7C7.89375 7 7 7.89374 7 9L7 55C7 56.1062 7.89375 57 9 57ZM11.5 11.5L52.5 11.5L52.5 52.5L11.5 52.5L11.5 11.5Z" fill="currentColor"/>
</g>
<defs>
<filter id="filter0_d_364_3890" x="-4" y="0" width="72" height="72" filterUnits="userSpaceOnUse" color-interpolation-filters="sRGB">
<feFlood flood-opacity="0" result="BackgroundImageFix"/>
<feColorMatrix in="SourceAlpha" type="matrix" values="0 0 0 0 0 0 0 0 0 0 0 0 0 0 0 0 0 0 127 0" result="hardAlpha"/>
<feOffset dy="4"/>
<feGaussianBlur stdDeviation="2"/>
<feComposite in2="hardAlpha" operator="out"/>
<feColorMatrix type="matrix" values="0 0 0 0 0 0 0 0 0 0 0 0 0 0 0 0 0 0 0.25 0"/>
<feBlend mode="normal" in2="BackgroundImageFix" result="effect1_dropShadow_364_3890"/>
<feBlend mode="normal" in="SourceGraphic" in2="effect1_dropShadow_364_3890" result="shape"/>
</filter>
</defs>
</svg>
